ffmpeg started on 2026-04-01 at 10:32:41
Report written to "D:\Convert\FFMetrics\reports\psnr_report-6.txt"
Log level: 32
Command line:
ffmpeg -hide_banner -nostdin -r 24000/1001 -i "F:\\Convert\\files\\[DC] Make Heroine ga Oosugiru - 07_Telegram_HEVC(253).mkv" -r 24000/1001 -i "F:\\Convert\\files\\[DC] Make Heroine ga Oosugiru - 07_Telegram.mp4" -lavfi "[0:v]settb=AVTB,setpts=PTS-STARTPTS,format=pix_fmts=yuv420p10le,fps=24000/1001,scale=1920:1080:flags=lanczos:param0=3:out_range=limited:out_color_matrix=bt709:out_chroma_loc=left,setsar=1/1,setdar=(1920/1080)*(1/1),colorspace=format=yuv420p10:range=tv:primaries=bt709:trc=bt709:space=bt709:fast=0[main];[1:v]settb=AVTB,setpts=PTS-STARTPTS,format=pix_fmts=yuv420p,fps=24000/1001,scale=1920:1080:flags=lanczos:param0=3:out_range=limited:out_color_matrix=bt709:out_chroma_loc=left,setsar=1/1,setdar=(1920/1080)*(1/1),colorspace=format=yuv420p:range=tv:primaries=bt709:trc=bt709:space=bt709:fast=0[ref];[main][ref]psnr=eof_action=endall:stats_file='D\\:/Convert/FFMetrics/logs/psnr_logfile-6.txt'" -f null -
Input #0, matroska,webm, from 'F:\Convert\files\[DC] Make Heroine ga Oosugiru - 07_Telegram_HEVC(253).mkv':
  Metadata:
    COMPATIBLE_BRANDS: isomiso2avc1mp41
    MAJOR_BRAND     : isom
    MINOR_VERSION   : 512
    ENCODER         : Lavf61.7.100
  Duration: 00:24:06.79, start: -0.021000, bitrate: 960 kb/s
  Stream #0:0: Video: hevc (Main 10), yuv420p10le(tv, bt709, progressive), 1920x1080 [SAR 1:1 DAR 16:9], 23.98 fps, 23.98 tbr, 1k tbn (default)
      Metadata:
        HANDLER_NAME    : VideoHandler
        VENDOR_ID       : [0][0][0][0]
        ENCODER         : Lavc61.19.100 libx265
        BPS             : 763844
        DURATION        : 00:24:06.569708333
        NUMBER_OF_FRAMES: 34683
        NUMBER_OF_BYTES : 138119227
        _STATISTICS_WRITING_APP: mkvpropedit v94.0 ('Initiate') 64-bit
        _STATISTICS_WRITING_DATE_UTC: 2026-03-30 08:55:21
        _STATISTICS_TAGS: BPS DURATION NUMBER_OF_FRAMES NUMBER_OF_BYTES
  Stream #0:1: Audio: aac (LC), 48000 Hz, stereo, fltp (default)
      Metadata:
        HANDLER_NAME    : SoundHandler
        VENDOR_ID       : [0][0][0][0]
        ENCODER         : Lavc61.19.100 aac
        BPS             : 193194
        DURATION        : 00:24:06.784000000
        NUMBER_OF_FRAMES: 67819
        NUMBER_OF_BYTES : 34938755
        _STATISTICS_WRITING_APP: mkvpropedit v94.0 ('Initiate') 64-bit
        _STATISTICS_WRITING_DATE_UTC: 2026-03-30 08:55:21
        _STATISTICS_TAGS: BPS DURATION NUMBER_OF_FRAMES NUMBER_OF_BYTES
Input #1, mov,mp4,m4a,3gp,3g2,mj2, from 'F:\Convert\files\[DC] Make Heroine ga Oosugiru - 07_Telegram.mp4':
  Metadata:
    major_brand     : isom
    minor_version   : 512
    compatible_brands: isomiso2avc1mp41
    encoder         : Lavf60.16.100
  Duration: 00:24:06.74, start: 0.000000, bitrate: 3764 kb/s
  Stream #1:0[0x1](und): Video: h264 (High) (avc1 / 0x31637661), yuv420p(tv, bt709, progressive), 1920x1080 [SAR 1:1 DAR 16:9], 3616 kb/s, 23.98 fps, 23.98 tbr, 24k tbn (default)
      Metadata:
        handler_name    : VideoHandler
        vendor_id       : [0][0][0][0]
        encoder         : Lavc60.31.102 h264_qsv
  Stream #1:1[0x2](und): Audio: aac (HE-AACv2) (mp4a / 0x6134706D), 48000 Hz, stereo, fltp, 144 kb/s (default)
      Metadata:
        handler_name    : SoundHandler
        vendor_id       : [0][0][0][0]
Stream mapping:
  Stream #0:0 (hevc) -> settb:default
  Stream #1:0 (h264) -> settb:default
  psnr:default -> Stream #0:0 (wrapped_avframe)
  Stream #0:1 -> #0:1 (aac (native) -> pcm_s16le (native))
Output #0, null, to 'pipe:':
  Metadata:
    COMPATIBLE_BRANDS: isomiso2avc1mp41
    MAJOR_BRAND     : isom
    MINOR_VERSION   : 512
    encoder         : Lavf61.7.100
  Stream #0:0: Video: wrapped_avframe, yuv420p10le(tv, bt709, progressive), 1920x1080 [SAR 1:1 DAR 16:9], q=2-31, 200 kb/s, 23.98 fps, 23.98 tbn
      Metadata:
        encoder         : Lavc61.19.100 wrapped_avframe
  Stream #0:1: Audio: pcm_s16le, 48000 Hz, stereo, s16, 1536 kb/s (default)
      Metadata:
        HANDLER_NAME    : SoundHandler
        VENDOR_ID       : [0][0][0][0]
        _STATISTICS_TAGS: BPS DURATION NUMBER_OF_FRAMES NUMBER_OF_BYTES
        BPS             : 193194
        DURATION        : 00:24:06.784000000
        NUMBER_OF_FRAMES: 67819
        NUMBER_OF_BYTES : 34938755
        _STATISTICS_WRITING_APP: mkvpropedit v94.0 ('Initiate') 64-bit
        _STATISTICS_WRITING_DATE_UTC: 2026-03-30 08:55:21
        encoder         : Lavc61.19.100 pcm_s16le
frame=  116 fps=0.0 q=-0.0 size=N/A time=00:00:04.83 bitrate=N/A speed=9.61x    frame=  298 fps=289 q=-0.0 size=N/A time=00:00:12.42 bitrate=N/A speed=12.1x    frame=  479 fps=310 q=-0.0 size=N/A time=00:00:19.97 bitrate=N/A speed=12.9x    frame=  653 fps=318 q=-0.0 size=N/A time=00:00:27.23 bitrate=N/A speed=13.2x    frame=  828 fps=323 q=-0.0 size=N/A time=00:00:34.53 bitrate=N/A speed=13.5x    frame=  963 fps=311 q=-0.0 size=N/A time=00:00:40.16 bitrate=N/A speed=  13x    frame= 1103 fps=306 q=-0.0 size=N/A time=00:00:46.00 bitrate=N/A speed=12.8x    frame= 1255 fps=305 q=-0.0 size=N/A time=00:00:52.34 bitrate=N/A speed=12.7x    frame= 1410 fps=304 q=-0.0 size=N/A time=00:00:58.80 bitrate=N/A speed=12.7x    frame= 1540 fps=299 q=-0.0 size=N/A time=00:01:04.23 bitrate=N/A speed=12.5x    frame= 1674 fps=296 q=-0.0 size=N/A time=00:01:09.81 bitrate=N/A speed=12.3x    frame= 1837 fps=298 q=-0.0 size=N/A time=00:01:16.61 bitrate=N/A speed=12.4x    frame= 1996 fps=298 q=-0.0 size=N/A time=00:01:23.24 bitrate=N/A speed=12.4x    frame= 2097 fps=291 q=-0.0 size=N/A time=00:01:27.46 bitrate=N/A speed=12.1x    frame= 2238 fps=290 q=-0.0 size=N/A time=00:01:33.34 bitrate=N/A speed=12.1x    frame= 2378 fps=288 q=-0.0 size=N/A time=00:01:39.18 bitrate=N/A speed=  12x    frame= 2502 fps=286 q=-0.0 size=N/A time=00:01:44.35 bitrate=N/A speed=11.9x    frame= 2655 fps=286 q=-0.0 size=N/A time=00:01:50.73 bitrate=N/A speed=11.9x    frame= 2821 fps=288 q=-0.0 size=N/A time=00:01:57.65 bitrate=N/A speed=  12x    frame= 2989 fps=290 q=-0.0 size=N/A time=00:02:04.66 bitrate=N/A speed=12.1x    frame= 3166 fps=293 q=-0.0 size=N/A time=00:02:12.04 bitrate=N/A speed=12.2x    frame= 3362 fps=296 q=-0.0 size=N/A time=00:02:20.22 bitrate=N/A speed=12.4x    frame= 3541 fps=299 q=-0.0 size=N/A time=00:02:27.68 bitrate=N/A speed=12.5x    frame= 3725 fps=301 q=-0.0 size=N/A time=00:02:35.36 bitrate=N/A speed=12.6x    frame= 3904 fps=303 q=-0.0 size=N/A time=00:02:42.82 bitrate=N/A speed=12.6x    frame= 4094 fps=305 q=-0.0 size=N/A time=00:02:50.75 bitrate=N/A speed=12.7x    frame= 4268 fps=307 q=-0.0 size=N/A time=00:02:58.01 bitrate=N/A speed=12.8x    frame= 4457 fps=309 q=-0.0 size=N/A time=00:03:05.89 bitrate=N/A speed=12.9x    frame= 4646 fps=311 q=-0.0 size=N/A time=00:03:13.77 bitrate=N/A speed=  13x    frame= 4836 fps=313 q=-0.0 size=N/A time=00:03:21.70 bitrate=N/A speed=13.1x    frame= 5028 fps=315 q=-0.0 size=N/A time=00:03:29.70 bitrate=N/A speed=13.1x    frame= 5202 fps=316 q=-0.0 size=N/A time=00:03:36.96 bitrate=N/A speed=13.2x    frame= 5383 fps=316 q=-0.0 size=N/A time=00:03:44.51 bitrate=N/A speed=13.2x    frame= 5560 fps=317 q=-0.0 size=N/A time=00:03:51.89 bitrate=N/A speed=13.2x    frame= 5742 fps=318 q=-0.0 size=N/A time=00:03:59.48 bitrate=N/A speed=13.3x    frame= 5926 fps=319 q=-0.0 size=N/A time=00:04:07.16 bitrate=N/A speed=13.3x    frame= 6094 fps=320 q=-0.0 size=N/A time=00:04:14.17 bitrate=N/A speed=13.3x    frame= 6269 fps=320 q=-0.0 size=N/A time=00:04:21.46 bitrate=N/A speed=13.4x    frame= 6453 fps=321 q=-0.0 size=N/A time=00:04:29.14 bitrate=N/A speed=13.4x    frame= 6634 fps=322 q=-0.0 size=N/A time=00:04:36.69 bitrate=N/A speed=13.4x    frame= 6818 fps=323 q=-0.0 size=N/A time=00:04:44.36 bitrate=N/A speed=13.5x    frame= 6998 fps=323 q=-0.0 size=N/A time=00:04:51.87 bitrate=N/A speed=13.5x    frame= 7176 fps=324 q=-0.0 size=N/A time=00:04:59.29 bitrate=N/A speed=13.5x    frame= 7356 fps=324 q=-0.0 size=N/A time=00:05:06.80 bitrate=N/A speed=13.5x    frame= 7529 fps=324 q=-0.0 size=N/A time=00:05:14.02 bitrate=N/A speed=13.5x    frame= 7697 fps=325 q=-0.0 size=N/A time=00:05:21.02 bitrate=N/A speed=13.5x    frame= 7878 fps=325 q=-0.0 size=N/A time=00:05:28.57 bitrate=N/A speed=13.6x    frame= 8055 fps=326 q=-0.0 size=N/A time=00:05:35.96 bitrate=N/A speed=13.6x    frame= 8233 fps=326 q=-0.0 size=N/A time=00:05:43.38 bitrate=N/A speed=13.6x    frame= 8404 fps=326 q=-0.0 size=N/A time=00:05:50.51 bitrate=N/A speed=13.6x    frame= 8586 fps=327 q=-0.0 size=N/A time=00:05:58.10 bitrate=N/A speed=13.6x    frame= 8779 fps=327 q=-0.0 size=N/A time=00:06:06.15 bitrate=N/A speed=13.7x    frame= 8959 fps=328 q=-0.0 size=N/A time=00:06:13.66 bitrate=N/A speed=13.7x    frame= 9143 fps=329 q=-0.0 size=N/A time=00:06:21.33 bitrate=N/A speed=13.7x    frame= 9324 fps=329 q=-0.0 size=N/A time=00:06:28.88 bitrate=N/A speed=13.7x    frame= 9497 fps=329 q=-0.0 size=N/A time=00:06:36.10 bitrate=N/A speed=13.7x    frame= 9672 fps=329 q=-0.0 size=N/A time=00:06:43.40 bitrate=N/A speed=13.7x    frame= 9857 fps=330 q=-0.0 size=N/A time=00:06:51.11 bitrate=N/A speed=13.7x    frame=10037 fps=330 q=-0.0 size=N/A time=00:06:58.62 bitrate=N/A speed=13.8x    frame=10207 fps=330 q=-0.0 size=N/A time=00:07:05.71 bitrate=N/A speed=13.8x    frame=10379 fps=330 q=-0.0 size=N/A time=00:07:12.89 bitrate=N/A speed=13.8x    frame=10559 fps=330 q=-0.0 size=N/A time=00:07:20.39 bitrate=N/A speed=13.8x    frame=10728 fps=330 q=-0.0 size=N/A time=00:07:27.44 bitrate=N/A speed=13.8x    frame=10898 fps=330 q=-0.0 size=N/A time=00:07:34.53 bitrate=N/A speed=13.8x    frame=11067 fps=330 q=-0.0 size=N/A time=00:07:41.58 bitrate=N/A speed=13.8x    frame=11236 fps=330 q=-0.0 size=N/A time=00:07:48.63 bitrate=N/A speed=13.8x    frame=11407 fps=330 q=-0.0 size=N/A time=00:07:55.76 bitrate=N/A speed=13.8x    frame=11583 fps=330 q=-0.0 size=N/A time=00:08:03.10 bitrate=N/A speed=13.8x    frame=11762 fps=331 q=-0.0 size=N/A time=00:08:10.57 bitrate=N/A speed=13.8x    frame=11946 fps=331 q=-0.0 size=N/A time=00:08:18.24 bitrate=N/A speed=13.8x    frame=12121 fps=331 q=-0.0 size=N/A time=00:08:25.54 bitrate=N/A speed=13.8x    frame=12301 fps=331 q=-0.0 size=N/A time=00:08:33.05 bitrate=N/A speed=13.8x    frame=12474 fps=331 q=-0.0 size=N/A time=00:08:40.26 bitrate=N/A speed=13.8x    frame=12658 fps=332 q=-0.0 size=N/A time=00:08:47.94 bitrate=N/A speed=13.8x    frame=12843 fps=332 q=-0.0 size=N/A time=00:08:55.66 bitrate=N/A speed=13.8x    frame=13023 fps=332 q=-0.0 size=N/A time=00:09:03.16 bitrate=N/A speed=13.9x    frame=13190 fps=332 q=-0.0 size=N/A time=00:09:10.13 bitrate=N/A speed=13.9x    frame=13374 fps=332 q=-0.0 size=N/A time=00:09:17.80 bitrate=N/A speed=13.9x    frame=13548 fps=332 q=-0.0 size=N/A time=00:09:25.06 bitrate=N/A speed=13.9x    frame=13727 fps=333 q=-0.0 size=N/A time=00:09:32.53 bitrate=N/A speed=13.9x    frame=13908 fps=333 q=-0.0 size=N/A time=00:09:40.07 bitrate=N/A speed=13.9x    frame=14083 fps=333 q=-0.0 size=N/A time=00:09:47.37 bitrate=N/A speed=13.9x    frame=14252 fps=333 q=-0.0 size=N/A time=00:09:54.42 bitrate=N/A speed=13.9x    frame=14426 fps=333 q=-0.0 size=N/A time=00:10:01.68 bitrate=N/A speed=13.9x    frame=14606 fps=333 q=-0.0 size=N/A time=00:10:09.19 bitrate=N/A speed=13.9x    frame=14787 fps=333 q=-0.0 size=N/A time=00:10:16.74 bitrate=N/A speed=13.9x    frame=14974 fps=334 q=-0.0 size=N/A time=00:10:24.54 bitrate=N/A speed=13.9x    frame=15128 fps=333 q=-0.0 size=N/A time=00:10:30.96 bitrate=N/A speed=13.9x    frame=15292 fps=333 q=-0.0 size=N/A time=00:10:37.80 bitrate=N/A speed=13.9x    frame=15469 fps=333 q=-0.0 size=N/A time=00:10:45.18 bitrate=N/A speed=13.9x    frame=15646 fps=333 q=-0.0 size=N/A time=00:10:52.56 bitrate=N/A speed=13.9x    frame=15825 fps=333 q=-0.0 size=N/A time=00:11:00.03 bitrate=N/A speed=13.9x    frame=16019 fps=334 q=-0.0 size=N/A time=00:11:08.12 bitrate=N/A speed=13.9x    frame=16196 fps=334 q=-0.0 size=N/A time=00:11:15.50 bitrate=N/A speed=13.9x    frame=16377 fps=334 q=-0.0 size=N/A time=00:11:23.05 bitrate=N/A speed=13.9x    frame=16558 fps=334 q=-0.0 size=N/A time=00:11:30.60 bitrate=N/A speed=13.9x    frame=16736 fps=334 q=-0.0 size=N/A time=00:11:38.03 bitrate=N/A speed=13.9x    frame=16908 fps=334 q=-0.0 size=N/A time=00:11:45.20 bitrate=N/A speed=  14x    frame=17091 fps=335 q=-0.0 size=N/A time=00:11:52.83 bitrate=N/A speed=  14x    frame=17263 fps=335 q=-0.0 size=N/A time=00:12:00.01 bitrate=N/A speed=  14x    frame=17427 fps=334 q=-0.0 size=N/A time=00:12:06.85 bitrate=N/A speed=  14x    frame=17602 fps=334 q=-0.0 size=N/A time=00:12:14.15 bitrate=N/A speed=  14x    frame=17779 fps=335 q=-0.0 size=N/A time=00:12:21.53 bitrate=N/A speed=  14x    frame=17955 fps=335 q=-0.0 size=N/A time=00:12:28.87 bitrate=N/A speed=  14x    frame=18146 fps=335 q=-0.0 size=N/A time=00:12:36.83 bitrate=N/A speed=  14x    frame=18321 fps=335 q=-0.0 size=N/A time=00:12:44.13 bitrate=N/A speed=  14x    frame=18500 fps=335 q=-0.0 size=N/A time=00:12:51.60 bitrate=N/A speed=  14x    frame=18683 fps=335 q=-0.0 size=N/A time=00:12:59.23 bitrate=N/A speed=  14x    frame=18869 fps=335 q=-0.0 size=N/A time=00:13:06.99 bitrate=N/A speed=  14x    frame=19045 fps=336 q=-0.0 size=N/A time=00:13:14.33 bitrate=N/A speed=  14x    frame=19236 fps=336 q=-0.0 size=N/A time=00:13:22.30 bitrate=N/A speed=  14x    frame=19418 fps=336 q=-0.0 size=N/A time=00:13:29.89 bitrate=N/A speed=  14x    frame=19602 fps=336 q=-0.0 size=N/A time=00:13:37.56 bitrate=N/A speed=  14x    frame=19790 fps=336 q=-0.0 size=N/A time=00:13:45.40 bitrate=N/A speed=  14x    frame=19976 fps=337 q=-0.0 size=N/A time=00:13:53.16 bitrate=N/A speed=  14x    frame=20161 fps=337 q=-0.0 size=N/A time=00:14:00.88 bitrate=N/A speed=  14x    frame=20345 fps=337 q=-0.0 size=N/A time=00:14:08.55 bitrate=N/A speed=14.1x    frame=20516 fps=337 q=-0.0 size=N/A time=00:14:15.68 bitrate=N/A speed=14.1x    frame=20686 fps=337 q=-0.0 size=N/A time=00:14:22.77 bitrate=N/A speed=14.1x    frame=20860 fps=337 q=-0.0 size=N/A time=00:14:30.03 bitrate=N/A speed=14.1x    frame=21040 fps=337 q=-0.0 size=N/A time=00:14:37.54 bitrate=N/A speed=14.1x    frame=21224 fps=337 q=-0.0 size=N/A time=00:14:45.21 bitrate=N/A speed=14.1x    frame=21410 fps=337 q=-0.0 size=N/A time=00:14:52.97 bitrate=N/A speed=14.1x    frame=21588 fps=337 q=-0.0 size=N/A time=00:15:00.39 bitrate=N/A speed=14.1x    frame=21772 fps=338 q=-0.0 size=N/A time=00:15:08.07 bitrate=N/A speed=14.1x    frame=21961 fps=338 q=-0.0 size=N/A time=00:15:15.95 bitrate=N/A speed=14.1x    frame=22151 fps=338 q=-0.0 size=N/A time=00:15:23.88 bitrate=N/A speed=14.1x    frame=22334 fps=338 q=-0.0 size=N/A time=00:15:31.51 bitrate=N/A speed=14.1x    frame=22520 fps=338 q=-0.0 size=N/A time=00:15:39.27 bitrate=N/A speed=14.1x    frame=22709 fps=339 q=-0.0 size=N/A time=00:15:47.15 bitrate=N/A speed=14.1x    frame=22898 fps=339 q=-0.0 size=N/A time=00:15:55.03 bitrate=N/A speed=14.1x    frame=23090 fps=339 q=-0.0 size=N/A time=00:16:03.04 bitrate=N/A speed=14.1x    frame=23281 fps=339 q=-0.0 size=N/A time=00:16:11.01 bitrate=N/A speed=14.2x    frame=23467 fps=339 q=-0.0 size=N/A time=00:16:18.76 bitrate=N/A speed=14.2x    frame=23660 fps=340 q=-0.0 size=N/A time=00:16:26.81 bitrate=N/A speed=14.2x    frame=23842 fps=340 q=-0.0 size=N/A time=00:16:34.41 bitrate=N/A speed=14.2x    frame=24021 fps=340 q=-0.0 size=N/A time=00:16:41.87 bitrate=N/A speed=14.2x    frame=24212 fps=340 q=-0.0 size=N/A time=00:16:49.84 bitrate=N/A speed=14.2x    frame=24393 fps=340 q=-0.0 size=N/A time=00:16:57.39 bitrate=N/A speed=14.2x    frame=24584 fps=340 q=-0.0 size=N/A time=00:17:05.35 bitrate=N/A speed=14.2x    frame=24778 fps=341 q=-0.0 size=N/A time=00:17:13.44 bitrate=N/A speed=14.2x    frame=24968 fps=341 q=-0.0 size=N/A time=00:17:21.37 bitrate=N/A speed=14.2x    frame=25158 fps=341 q=-0.0 size=N/A time=00:17:29.29 bitrate=N/A speed=14.2x    frame=25352 fps=341 q=-0.0 size=N/A time=00:17:37.38 bitrate=N/A speed=14.2x    frame=25540 fps=341 q=-0.0 size=N/A time=00:17:45.23 bitrate=N/A speed=14.2x    frame=25725 fps=342 q=-0.0 size=N/A time=00:17:52.94 bitrate=N/A speed=14.2x    frame=25914 fps=342 q=-0.0 size=N/A time=00:18:00.82 bitrate=N/A speed=14.3x    frame=26107 fps=342 q=-0.0 size=N/A time=00:18:08.87 bitrate=N/A speed=14.3x    frame=26304 fps=342 q=-0.0 size=N/A time=00:18:17.09 bitrate=N/A speed=14.3x    frame=26495 fps=342 q=-0.0 size=N/A time=00:18:25.06 bitrate=N/A speed=14.3x    frame=26689 fps=343 q=-0.0 size=N/A time=00:18:33.15 bitrate=N/A speed=14.3x    frame=26880 fps=343 q=-0.0 size=N/A time=00:18:41.12 bitrate=N/A speed=14.3x    frame=27052 fps=343 q=-0.0 size=N/A time=00:18:48.29 bitrate=N/A speed=14.3x    frame=27231 fps=343 q=-0.0 size=N/A time=00:18:55.75 bitrate=N/A speed=14.3x    frame=27417 fps=343 q=-0.0 size=N/A time=00:19:03.51 bitrate=N/A speed=14.3x    frame=27607 fps=343 q=-0.0 size=N/A time=00:19:11.44 bitrate=N/A speed=14.3x    frame=27789 fps=343 q=-0.0 size=N/A time=00:19:19.03 bitrate=N/A speed=14.3x    frame=27968 fps=343 q=-0.0 size=N/A time=00:19:26.49 bitrate=N/A speed=14.3x    frame=28163 fps=343 q=-0.0 size=N/A time=00:19:34.63 bitrate=N/A speed=14.3x    frame=28353 fps=344 q=-0.0 size=N/A time=00:19:42.55 bitrate=N/A speed=14.3x    frame=28532 fps=344 q=-0.0 size=N/A time=00:19:50.02 bitrate=N/A speed=14.3x    frame=28718 fps=344 q=-0.0 size=N/A time=00:19:57.77 bitrate=N/A speed=14.3x    frame=28891 fps=344 q=-0.0 size=N/A time=00:20:04.99 bitrate=N/A speed=14.3x    frame=29053 fps=343 q=-0.0 size=N/A time=00:20:11.75 bitrate=N/A speed=14.3x    frame=29234 fps=343 q=-0.0 size=N/A time=00:20:19.30 bitrate=N/A speed=14.3x    frame=29405 fps=343 q=-0.0 size=N/A time=00:20:26.43 bitrate=N/A speed=14.3x    frame=29567 fps=343 q=-0.0 size=N/A time=00:20:33.19 bitrate=N/A speed=14.3x    frame=29738 fps=343 q=-0.0 size=N/A time=00:20:40.32 bitrate=N/A speed=14.3x    frame=29910 fps=343 q=-0.0 size=N/A time=00:20:47.49 bitrate=N/A speed=14.3x    frame=30059 fps=343 q=-0.0 size=N/A time=00:20:53.71 bitrate=N/A speed=14.3x    frame=30239 fps=343 q=-0.0 size=N/A time=00:21:01.21 bitrate=N/A speed=14.3x    frame=30425 fps=343 q=-0.0 size=N/A time=00:21:08.97 bitrate=N/A speed=14.3x    frame=30622 fps=343 q=-0.0 size=N/A time=00:21:17.19 bitrate=N/A speed=14.3x    frame=30808 fps=343 q=-0.0 size=N/A time=00:21:24.95 bitrate=N/A speed=14.3x    frame=30995 fps=343 q=-0.0 size=N/A time=00:21:32.74 bitrate=N/A speed=14.3x    frame=31189 fps=343 q=-0.0 size=N/A time=00:21:40.84 bitrate=N/A speed=14.3x    frame=31371 fps=343 q=-0.0 size=N/A time=00:21:48.43 bitrate=N/A speed=14.3x    frame=31556 fps=344 q=-0.0 size=N/A time=00:21:56.14 bitrate=N/A speed=14.3x    frame=31748 fps=344 q=-0.0 size=N/A time=00:22:04.15 bitrate=N/A speed=14.3x    frame=31927 fps=344 q=-0.0 size=N/A time=00:22:11.62 bitrate=N/A speed=14.3x    frame=32101 fps=344 q=-0.0 size=N/A time=00:22:18.87 bitrate=N/A speed=14.3x    frame=32291 fps=344 q=-0.0 size=N/A time=00:22:26.80 bitrate=N/A speed=14.3x    frame=32482 fps=344 q=-0.0 size=N/A time=00:22:34.77 bitrate=N/A speed=14.3x    frame=32651 fps=344 q=-0.0 size=N/A time=00:22:41.81 bitrate=N/A speed=14.3x    frame=32799 fps=344 q=-0.0 size=N/A time=00:22:47.99 bitrate=N/A speed=14.3x    frame=32970 fps=343 q=-0.0 size=N/A time=00:22:55.12 bitrate=N/A speed=14.3x    frame=33153 fps=344 q=-0.0 size=N/A time=00:23:02.75 bitrate=N/A speed=14.3x    frame=33330 fps=344 q=-0.0 size=N/A time=00:23:10.13 bitrate=N/A speed=14.3x    frame=33494 fps=343 q=-0.0 size=N/A time=00:23:16.97 bitrate=N/A speed=14.3x    frame=33640 fps=343 q=-0.0 size=N/A time=00:23:23.06 bitrate=N/A speed=14.3x    frame=33773 fps=343 q=-0.0 size=N/A time=00:23:28.61 bitrate=N/A speed=14.3x    frame=33896 fps=342 q=-0.0 size=N/A time=00:23:33.74 bitrate=N/A speed=14.3x    frame=34054 fps=342 q=-0.0 size=N/A time=00:23:40.33 bitrate=N/A speed=14.3x    frame=34211 fps=342 q=-0.0 size=N/A time=00:23:46.88 bitrate=N/A speed=14.3x    frame=34348 fps=341 q=-0.0 size=N/A time=00:23:52.59 bitrate=N/A speed=14.2x    frame=34480 fps=341 q=-0.0 size=N/A time=00:23:58.10 bitrate=N/A speed=14.2x    frame=34664 fps=341 q=-0.0 size=N/A time=00:24:05.77 bitrate=N/A speed=14.2x    [Parsed_psnr_16 @ 00000239c7aedd00] PSNR y:48.873636 u:50.316162 v:50.368899 average:49.310275 min:38.001275 max:inf
[out#0/null @ 00000239c071dec0] video:14903KiB audio:271276KiB subtitle:0KiB other streams:0KiB global headers:0KiB muxing overhead: unknown
frame=34683 fps=341 q=-0.0 Lsize=N/A time=00:24:06.57 bitrate=N/A speed=14.2x    
